<svg width="331" height="468" viewBox="0 0 331 468" fill="none" xmlns="http://www.w3.org/2000/svg">
<path d="M272.418 146.875L227.658 122.312C226.765 121.822 225.977 121.16 225.34 120.365C224.702 119.57 224.227 118.657 223.942 117.678C223.657 116.699 223.567 115.673 223.678 114.658C223.789 113.644 224.098 112.662 224.588 111.767L267.98 32.4621C268.469 31.5671 269.13 30.7774 269.924 30.1381C270.718 29.4988 271.63 29.0224 272.608 28.7361C273.586 28.4498 274.61 28.3592 275.623 28.4695C276.635 28.5798 277.616 28.8888 278.509 29.3789L323.27 53.9422C324.163 54.4313 324.951 55.0919 325.59 55.8865C326.228 56.681 326.704 57.5939 326.99 58.5728C327.275 59.5518 327.366 60.5777 327.256 61.5919C327.146 62.6062 326.838 63.5889 326.349 64.4839L282.955 143.789C282.466 144.685 281.805 145.476 281.011 146.117C280.216 146.757 279.303 147.235 278.325 147.521C277.346 147.808 276.32 147.898 275.307 147.788C274.293 147.677 273.312 147.367 272.418 146.875Z" fill="#E5E5E5"/>
<path opacity="0.25" d="M239.475 119.261L253.799 115.144C254.642 114.902 255.429 114.496 256.115 113.95C256.801 113.403 257.373 112.726 257.798 111.958C258.224 111.19 258.494 110.346 258.593 109.473C258.692 108.601 258.619 107.717 258.378 106.873C257.89 105.169 256.747 103.728 255.199 102.869C253.651 102.01 251.826 101.802 250.124 102.291L235.8 106.407C234.099 106.897 232.661 108.043 231.802 109.594C230.944 111.145 230.735 112.974 231.222 114.678C231.709 116.383 232.852 117.823 234.4 118.682C235.948 119.542 237.774 119.75 239.475 119.261Z" fill="white"/>
<g style="mix-blend-mode:multiply" opacity="0.5">
<g style="mix-blend-mode:multiply">
<path d="M253.466 58.9803L224.586 111.763C224.096 112.657 223.787 113.64 223.676 114.654C223.565 115.668 223.655 116.694 223.94 117.673C224.225 118.653 224.7 119.566 225.338 120.361C225.975 121.156 226.763 121.818 227.656 122.307L260.532 140.349L268.827 83.7965C270.026 75.6265 258.711 64.1603 253.466 58.9803Z" fill="#EBEBEB"/>
</g>
</g>
<g style="mix-blend-mode:multiply" opacity="0.5">
<path d="M253.028 125.894L295.181 48.8585C295.279 48.6792 295.411 48.521 295.57 48.3929C295.729 48.2648 295.911 48.1693 296.107 48.112C296.303 48.0546 296.508 48.0365 296.71 48.0587C296.913 48.0808 297.109 48.1428 297.288 48.2411C297.649 48.4395 297.916 48.7733 298.032 49.1694C298.147 49.5654 298.101 49.9911 297.903 50.3531L255.75 127.388C255.652 127.567 255.52 127.726 255.361 127.854C255.202 127.982 255.02 128.077 254.824 128.135C254.629 128.192 254.424 128.21 254.221 128.188C254.018 128.166 253.822 128.104 253.643 128.006C253.282 127.807 253.015 127.473 252.899 127.077C252.784 126.681 252.831 126.256 253.028 125.894Z" fill="#E5E5E5"/>
</g>
<g style="mix-blend-mode:multiply">
<g style="mix-blend-mode:multiply" opacity="0.25">
<path d="M319.353 64.1877C319.232 63.7959 319.079 63.4148 318.896 63.0482L293.957 70.0311C294.018 70.3342 294.096 70.6335 294.192 70.9272C295.263 74.4456 298.792 76.5864 302.076 75.7077L315.347 72.1503C318.628 71.2755 320.422 67.7078 319.353 64.1877Z" fill="#E5E5E5"/>
</g>
</g>
<path d="M300.141 72.7654L307.497 70.6333L304.529 60.3416L297.173 62.4736C295.829 62.8652 294.696 63.7749 294.021 65.0029C293.346 66.2309 293.185 67.6768 293.574 69.0229L293.613 69.1539C294.001 70.4995 294.906 71.6356 296.13 72.3127C297.354 72.9898 298.797 73.1526 300.141 72.7654Z" fill="#E6EBF2"/>
<path d="M315.033 68.564C315.713 68.368 316.348 68.0396 316.901 67.5977C317.454 67.1558 317.916 66.609 318.258 65.9886C318.6 65.3682 318.817 64.6864 318.897 63.982C318.976 63.2776 318.916 62.5646 318.72 61.8837L318.683 61.751C318.488 61.0699 318.16 60.4341 317.72 59.8799C317.279 59.3257 316.733 58.8641 316.114 58.5214C315.495 58.1787 314.814 57.9616 314.111 57.8826C313.408 57.8035 312.697 57.8641 312.017 58.0607L304.111 60.352C304.096 63.972 305.057 67.4762 307.138 70.8486L315.033 68.564Z" fill="#DCDCDC"/>
<g style="mix-blend-mode:multiply">
<g style="mix-blend-mode:multiply">
<path d="M300.142 72.7656L307.068 70.7582C307.088 70.7904 307.102 70.8217 307.122 70.8538L315.029 68.5626C316.018 68.2749 316.904 67.7089 317.582 66.9319C318.26 66.1548 318.702 65.1993 318.854 64.1788C318.122 65.0208 316.521 66.4071 313.272 67.5601C308.22 69.3478 298.802 71.7929 298.802 71.7929C297.569 72.1524 296.248 72.0621 295.074 71.5382C295.74 72.1651 296.558 72.6078 297.446 72.8229C298.335 73.0381 299.264 73.0184 300.142 72.7656Z" fill="#DAE0E6"/>
</g>
</g>
<g style="mix-blend-mode:screen">
<path d="M308.659 63.935C304.743 65.0736 301.362 65.3225 301.121 64.4984C300.879 63.6743 303.868 62.0721 307.789 60.9344C311.711 59.7967 315.086 59.5468 315.325 60.3706C315.565 61.1944 312.58 62.8034 308.659 63.935Z" fill="#D8C1B0"/>
</g>
<g style="mix-blend-mode:multiply">
<g style="mix-blend-mode:multiply" opacity="0.25">
<path d="M308.276 84.4298C308.156 84.0382 308.003 83.6576 307.818 83.2923L282.88 90.2752C282.939 90.5784 283.017 90.8776 283.113 91.1711C284.184 94.6915 287.714 96.8326 290.996 95.9516L304.267 92.3942C307.55 91.5216 309.347 87.9502 308.276 84.4298Z" fill="#E5E5E5"/>
</g>
</g>
<g style="mix-blend-mode:multiply">
<g style="mix-blend-mode:multiply">
<path d="M289.076 93.0098L296.009 91.0056C296.027 91.0354 296.044 91.067 296.062 91.0989L303.968 88.8076C304.958 88.52 305.844 87.9542 306.522 87.1772C307.201 86.4002 307.643 85.4447 307.795 84.4241C307.064 85.2661 305.461 86.6522 302.212 87.8051C297.172 89.5967 287.742 92.0379 287.742 92.0379C286.506 92.401 285.182 92.3111 284.007 91.7844C284.673 92.4118 285.491 92.8548 286.379 93.0696C287.268 93.2845 288.197 93.2638 289.076 93.0098Z" fill="#DAE0E6"/>
</g>
</g>
<path opacity="0.25" d="M289.766 94.2188L304.089 90.1022C304.932 89.8603 305.719 89.4544 306.405 88.9077C307.092 88.361 307.664 87.6843 308.089 86.9162C308.514 86.1481 308.784 85.3037 308.883 84.4312C308.983 83.5587 308.91 82.6753 308.668 81.8313C308.427 80.9872 308.022 80.1991 307.477 79.5119C306.932 78.8247 306.256 78.252 305.49 77.8264C304.723 77.4009 303.881 77.1309 303.01 77.0318C302.139 76.9327 301.257 77.0065 300.414 77.2489L286.091 81.3635C284.389 81.8535 282.951 83.0001 282.093 84.5514C281.234 86.1027 281.025 87.9317 281.512 89.6364C282 91.3406 283.143 92.7805 284.691 93.6398C286.239 94.4991 288.064 94.7073 289.766 94.2188Z" fill="white"/>
<g style="mix-blend-mode:multiply">
<g style="mix-blend-mode:multiply" opacity="0.25">
<path d="M297.196 104.67C297.076 104.279 296.923 103.898 296.738 103.533L271.8 110.516C271.859 110.819 271.937 111.119 272.035 111.412C273.106 114.932 276.634 117.073 279.918 116.192L293.189 112.637C296.473 111.758 298.277 108.192 297.196 104.67Z" fill="#E5E5E5"/>
</g>
</g>
<path d="M277.999 113.253L285.353 111.121L282.385 100.827L275.032 102.959C273.686 103.35 272.55 104.259 271.874 105.488C271.197 106.717 271.035 108.164 271.423 109.512L271.461 109.642C271.849 110.99 272.757 112.127 273.983 112.805C275.209 113.482 276.654 113.643 277.999 113.253Z" fill="#E6EBF2"/>
<path d="M292.882 109.047C293.562 108.851 294.196 108.523 294.75 108.081C295.303 107.64 295.764 107.093 296.107 106.473C296.449 105.853 296.666 105.171 296.745 104.467C296.825 103.763 296.764 103.05 296.569 102.369L296.53 102.234C296.335 101.553 296.008 100.917 295.567 100.363C295.126 99.8089 294.581 99.3473 293.962 99.0046C293.343 98.6619 292.663 98.4448 291.96 98.3658C291.257 98.2867 290.545 98.3473 289.866 98.5439L281.959 100.835C281.945 104.455 282.905 107.961 284.987 111.332L292.882 109.047Z" fill="#DCDCDC"/>
<g style="mix-blend-mode:multiply">
<g style="mix-blend-mode:multiply">
<path d="M277.996 113.252L284.922 111.244C284.94 111.276 284.956 111.308 284.977 111.338L292.881 109.047C293.871 108.76 294.758 108.194 295.436 107.417C296.115 106.64 296.556 105.684 296.708 104.663C295.977 105.505 294.376 106.891 291.126 108.046C286.074 109.834 276.656 112.279 276.656 112.279C275.42 112.641 274.096 112.551 272.92 112.025C273.587 112.653 274.406 113.097 275.296 113.312C276.186 113.527 277.117 113.506 277.996 113.252Z" fill="#DAE0E6"/>
</g>
</g>
<g style="mix-blend-mode:screen">
<path d="M286.506 104.426C282.591 105.564 279.222 105.815 278.97 104.989C278.719 104.164 281.717 102.565 285.638 101.427C289.56 100.29 292.923 100.038 293.174 100.864C293.426 101.689 290.428 103.286 286.506 104.426Z" fill="#FAF6F4"/>
</g>
<g style="mix-blend-mode:multiply">
<g style="mix-blend-mode:multiply" opacity="0.25">
<path d="M286.123 124.914C286.003 124.522 285.85 124.141 285.666 123.775L260.73 130.758C260.788 131.061 260.866 131.359 260.963 131.652C262.033 135.172 265.562 137.313 268.846 136.434L282.117 132.877C285.399 132 287.188 128.434 286.123 124.914Z" fill="#E5E5E5"/>
</g>
</g>
<path d="M266.922 133.493L274.278 131.361L271.31 121.069L263.954 123.201C263.288 123.394 262.666 123.716 262.124 124.15C261.582 124.584 261.131 125.12 260.796 125.728C260.461 126.336 260.249 127.005 260.172 127.695C260.095 128.385 260.154 129.084 260.346 129.751L260.385 129.882C260.577 130.549 260.899 131.172 261.332 131.714C261.764 132.257 262.299 132.709 262.906 133.044C263.513 133.379 264.18 133.591 264.869 133.668C265.558 133.745 266.256 133.686 266.922 133.493Z" fill="#E6EBF2"/>
<path d="M281.808 129.291C282.488 129.094 283.123 128.766 283.676 128.324C284.229 127.882 284.69 127.335 285.033 126.715C285.375 126.094 285.592 125.413 285.672 124.708C285.751 124.004 285.691 123.291 285.495 122.61L285.457 122.477C285.261 121.796 284.934 121.16 284.493 120.606C284.052 120.052 283.507 119.59 282.888 119.248C282.268 118.905 281.588 118.688 280.885 118.609C280.182 118.53 279.47 118.59 278.79 118.787L270.884 121.078C270.872 124.698 271.83 128.202 273.911 131.575L281.808 129.291Z" fill="#DCDCDC"/>
<g style="mix-blend-mode:multiply">
<g style="mix-blend-mode:multiply">
<path d="M266.919 133.495L273.844 131.487C273.865 131.519 273.881 131.551 273.899 131.583L281.805 129.291C282.795 129.004 283.681 128.438 284.359 127.661C285.037 126.884 285.478 125.928 285.63 124.908C284.899 125.748 283.298 127.136 280.049 128.289C275.009 130.079 265.579 132.522 265.579 132.522C264.343 132.884 263.02 132.794 261.845 132.268C262.511 132.896 263.33 133.34 264.219 133.555C265.109 133.77 266.04 133.749 266.919 133.495Z" fill="#DAE0E6"/>
</g>
</g>
<g style="mix-blend-mode:screen">
<path d="M275.432 124.667C271.516 125.806 268.135 126.055 267.895 125.231C267.656 124.407 270.64 122.804 274.562 121.667C278.484 120.529 281.859 120.279 282.098 121.103C282.337 121.927 279.353 123.529 275.432 124.667Z" fill="#FAF6F4"/>
</g>
<g style="mix-blend-mode:multiply">
<g style="mix-blend-mode:multiply" opacity="0.25">
<path d="M291.213 48.7482C291.093 48.3561 290.94 47.9749 290.756 47.6087L265.819 54.5918C265.878 54.8953 265.955 55.1945 266.052 55.4877C267.123 59.0081 270.651 61.1489 273.936 60.2682L287.206 56.7129C290.487 55.8441 292.284 52.2666 291.213 48.7482Z" fill="#E5E5E5"/>
</g>
</g>
<path opacity="0.25" d="M272.702 58.5348L287.026 54.4182C287.869 54.1762 288.656 53.7703 289.342 53.2236C290.028 52.6769 290.6 52.0002 291.026 51.2321C291.451 50.464 291.721 49.6196 291.82 48.7472C291.92 47.8747 291.846 46.9912 291.605 46.1472C291.117 44.4428 289.974 43.0025 288.426 42.1431C286.878 41.2838 285.053 41.0758 283.351 41.5649L269.027 45.6814C267.326 46.1706 265.887 47.3168 265.029 48.8679C264.17 50.419 263.961 52.2479 264.449 53.9524C264.69 54.7965 265.095 55.5846 265.64 56.2718C266.185 56.959 266.86 57.5317 267.627 57.9572C268.393 58.3828 269.236 58.6528 270.107 58.7519C270.978 58.851 271.86 58.7772 272.702 58.5348Z" fill="white"/>
<g style="mix-blend-mode:multiply">
<g style="mix-blend-mode:multiply" opacity="0.25">
<path d="M280.136 68.9892C280.016 68.5971 279.862 68.2159 279.678 67.8497L254.74 74.8326C254.799 75.1359 254.878 75.4353 254.975 75.7288C256.044 79.2468 259.574 81.3879 262.858 80.5092L276.129 76.9518C279.411 76.077 281.206 72.5096 280.136 68.9892Z" fill="#E5E5E5"/>
</g>
</g>
<path d="M260.94 77.5697L268.294 75.4374L265.326 65.1456L257.972 67.278C257.306 67.471 256.685 67.7935 256.143 68.2271C255.601 68.6607 255.15 69.197 254.815 69.8052C254.48 70.4135 254.268 71.0818 254.19 71.772C254.113 72.4623 254.172 73.1609 254.365 73.8281L254.402 73.9587C254.79 75.3063 255.698 76.4438 256.924 77.121C258.15 77.7982 259.595 77.9596 260.94 77.5697Z" fill="#E6EBF2"/>
<path d="M275.823 73.3647C276.503 73.1686 277.138 72.8403 277.691 72.3984C278.244 71.9565 278.706 71.4097 279.048 70.7893C279.39 70.1689 279.607 69.487 279.687 68.7826C279.766 68.0783 279.706 67.3653 279.51 66.6843L279.471 66.5513C279.276 65.8702 278.948 65.2344 278.508 64.6802C278.067 64.1261 277.521 63.6645 276.902 63.3217C276.283 62.979 275.602 62.7619 274.899 62.6829C274.196 62.6039 273.485 62.6644 272.805 62.8611L264.901 65.1527C264.886 68.7726 265.847 72.2769 267.928 75.6493L275.823 73.3647Z" fill="#DCDCDC"/>
<g style="mix-blend-mode:multiply">
<g style="mix-blend-mode:multiply">
<path d="M260.936 77.5688L267.867 75.5622C267.885 75.5941 267.902 75.6257 267.922 75.6579L275.826 73.3663C276.815 73.0787 277.702 72.5129 278.38 71.7359C279.059 70.9589 279.5 70.0035 279.653 68.9828C278.922 69.8248 277.321 71.2112 274.07 72.3638C269.03 74.1533 259.602 76.597 259.602 76.597C258.365 76.9586 257.041 76.8686 255.865 76.3431C256.532 76.97 257.35 77.4127 258.238 77.6275C259.127 77.8424 260.057 77.8222 260.936 77.5688Z" fill="#DAE0E6"/>
</g>
</g>
<g style="mix-blend-mode:screen">
<path d="M269.443 68.7407C265.527 69.8794 262.158 70.1301 261.907 69.3045C261.655 68.4789 264.653 66.8781 268.575 65.7404C272.497 64.6027 275.86 64.3511 276.111 65.1767C276.363 66.0023 273.365 67.603 269.443 68.7407Z" fill="#FAF6F4"/>
</g>
<g style="mix-blend-mode:multiply">
<g style="mix-blend-mode:multiply" opacity="0.25">
<path d="M269.065 89.2307C268.944 88.8396 268.791 88.4591 268.607 88.0932L243.669 95.0761C243.728 95.3794 243.807 95.6788 243.904 95.9723C244.974 99.4927 248.503 101.633 251.787 100.753L265.058 97.1954C268.34 96.3184 270.142 92.752 269.065 89.2307Z" fill="#E5E5E5"/>
</g>
</g>
<path d="M249.862 97.8097L257.213 95.6791L254.246 85.3853L246.89 87.5173C245.545 87.9084 244.411 88.8182 243.735 90.0466C243.06 91.2751 242.899 92.7217 243.288 94.0684L243.327 94.2013C243.519 94.8683 243.841 95.4906 244.273 96.0329C244.706 96.5752 245.241 97.0267 245.847 97.3618C246.454 97.6969 247.121 97.9089 247.81 97.9857C248.499 98.0626 249.196 98.0028 249.862 97.8097Z" fill="#E6EBF2"/>
<path d="M264.747 93.6075C265.427 93.4115 266.062 93.0831 266.615 92.6412C267.169 92.1993 267.63 91.6525 267.972 91.0321C268.315 90.4117 268.532 89.7298 268.611 89.0254C268.69 88.3211 268.63 87.6081 268.434 86.9271L268.398 86.7944C268.202 86.1133 267.875 85.4775 267.434 84.9234C266.993 84.3692 266.448 83.9076 265.829 83.5648C265.209 83.2221 264.529 83.005 263.826 82.926C263.123 82.847 262.411 82.9075 261.731 83.1042L253.825 85.3955C253.81 89.0154 254.771 92.5197 256.852 95.8921L264.747 93.6075Z" fill="#DCDCDC"/>
<g style="mix-blend-mode:multiply">
<g style="mix-blend-mode:multiply">
<path d="M249.863 97.8097L256.78 95.8031C256.8 95.8332 256.814 95.8645 256.835 95.8967L264.741 93.6054C265.73 93.3177 266.616 92.7517 267.294 91.9747C267.972 91.1976 268.414 90.2421 268.566 89.2216C267.834 90.0636 266.234 91.45 262.984 92.6029C257.942 94.3941 248.514 96.8378 248.514 96.8378C247.278 97.1996 245.954 97.1089 244.778 96.5819C245.445 97.2125 246.265 97.6575 247.157 97.8729C248.049 98.0883 248.982 98.0665 249.863 97.8097Z" fill="#DAE0E6"/>
</g>
</g>
<g style="mix-blend-mode:screen">
<path d="M258.37 88.9832C254.455 90.1218 251.074 90.3707 250.832 89.5466C250.591 88.7225 253.578 87.1223 257.5 85.9826C261.422 84.8428 264.797 84.595 265.037 85.4188C265.276 86.2426 262.292 87.8455 258.37 88.9832Z" fill="#FEFEFE"/>
</g>
<g style="mix-blend-mode:multiply">
<g style="mix-blend-mode:multiply" opacity="0.25">
<path d="M257.984 109.472C257.863 109.08 257.71 108.7 257.526 108.334L232.588 115.317C232.647 115.621 232.724 115.92 232.821 116.213C233.889 119.733 237.419 121.874 240.702 120.993L253.975 117.438C257.259 116.56 259.046 112.991 257.984 109.472Z" fill="#E5E5E5"/>
</g>
</g>
<path d="M238.787 118.054L246.141 115.921L243.173 105.627L235.819 107.76C234.474 108.15 233.338 109.059 232.661 110.288C231.985 111.517 231.823 112.964 232.211 114.312L232.248 114.443C232.637 115.79 233.544 116.928 234.771 117.605C235.997 118.282 237.441 118.443 238.787 118.054Z" fill="#E6EBF2"/>
<path d="M253.671 113.85C254.351 113.654 254.986 113.326 255.54 112.884C256.093 112.442 256.554 111.896 256.896 111.275C257.239 110.655 257.456 109.973 257.535 109.269C257.614 108.565 257.554 107.852 257.358 107.171L257.32 107.036C257.124 106.355 256.797 105.72 256.356 105.166C255.915 104.612 255.369 104.15 254.75 103.807C254.131 103.465 253.451 103.248 252.748 103.168C252.045 103.089 251.333 103.15 250.653 103.346L242.749 105.638C242.735 109.258 243.693 112.764 245.775 116.134L253.671 113.85Z" fill="#E5E5E5"/>
<g style="mix-blend-mode:multiply">
<g style="mix-blend-mode:multiply">
<path d="M238.788 118.052L245.714 116.045C245.732 116.077 245.748 116.108 245.767 116.138L253.673 113.847C254.663 113.56 255.549 112.994 256.228 112.217C256.906 111.44 257.348 110.484 257.5 109.464C256.769 110.306 255.166 111.692 251.916 112.847C246.876 114.636 237.446 117.079 237.446 117.079C236.211 117.441 234.887 117.351 233.712 116.826C234.379 117.454 235.198 117.897 236.088 118.112C236.978 118.328 237.909 118.307 238.788 118.052Z" fill="#DAE0E6"/>
</g>
</g>
<g style="mix-blend-mode:screen">
<path d="M247.292 109.227C243.376 110.365 239.995 110.614 239.756 109.79C239.516 108.966 242.5 107.364 246.424 106.226C250.348 105.089 253.709 104.837 253.96 105.662C254.212 106.488 251.214 108.087 247.292 109.227Z" fill="white"/>
</g>
<path opacity="0.25" d="M300.842 73.9781L315.165 69.8615C316.866 69.3721 318.303 68.2268 319.161 66.6771C320.019 65.1275 320.229 63.3002 319.743 61.5967C319.502 60.7526 319.097 59.9644 318.552 59.2772C318.007 58.59 317.332 58.0172 316.565 57.5914C315.799 57.1657 314.956 56.8955 314.085 56.7961C313.214 56.6967 312.333 56.7702 311.49 57.0123L297.166 61.1288C295.464 61.618 294.026 62.7642 293.167 64.3153C292.309 65.8664 292.1 67.6953 292.587 69.3998C293.076 71.1036 294.22 72.543 295.767 73.4016C297.315 74.2602 299.141 74.4675 300.842 73.9781Z" fill="white"/>
<path opacity="0.25" d="M267.616 134.695L281.939 130.578C283.641 130.089 285.079 128.943 285.938 127.392C286.797 125.841 287.005 124.012 286.518 122.307C286.277 121.463 285.872 120.675 285.327 119.988C284.782 119.301 284.107 118.728 283.34 118.302C282.574 117.876 281.731 117.606 280.86 117.507C279.989 117.407 279.107 117.481 278.265 117.723L263.941 121.84C262.239 122.329 260.801 123.475 259.942 125.026C259.084 126.577 258.875 128.406 259.362 130.11C259.604 130.955 260.008 131.743 260.554 132.43C261.099 133.117 261.774 133.69 262.54 134.116C263.307 134.541 264.149 134.812 265.02 134.911C265.891 135.01 266.773 134.937 267.616 134.695Z" fill="white"/>
<path opacity="0.25" d="M278.691 114.459L293.013 110.342C293.856 110.1 294.643 109.694 295.329 109.147C296.015 108.601 296.587 107.924 297.013 107.156C297.438 106.388 297.708 105.544 297.808 104.671C297.908 103.799 297.835 102.915 297.594 102.071C297.106 100.367 295.963 98.9263 294.415 98.0669C292.867 97.2076 291.042 96.9996 289.34 97.4887L275.016 101.605C274.174 101.847 273.387 102.253 272.7 102.8C272.014 103.346 271.442 104.023 271.017 104.791C270.592 105.559 270.322 106.404 270.222 107.276C270.123 108.149 270.196 109.032 270.438 109.876C270.925 111.581 272.068 113.021 273.616 113.88C275.164 114.74 276.99 114.948 278.691 114.459Z" fill="white"/>
<path opacity="0.25" d="M261.628 78.7792L275.95 74.6624C277.651 74.1731 279.09 73.0271 279.949 71.4762C280.808 69.9252 281.017 68.0964 280.53 66.3917C280.042 64.6871 278.899 63.2466 277.351 62.3869C275.803 61.5272 273.977 61.3186 272.275 61.807L257.953 65.9239C256.253 66.4129 254.816 67.5578 253.958 69.1069C253.099 70.6561 252.889 72.4829 253.374 74.1863C253.86 75.8922 255.002 77.3344 256.55 78.1957C258.098 79.0571 259.925 79.267 261.628 78.7792Z" fill="white"/>
<path opacity="0.25" d="M250.551 99.0173L264.875 94.9007C266.576 94.4115 268.015 93.2653 268.873 91.7142C269.732 90.1631 269.94 88.3342 269.453 86.6297C269.212 85.7856 268.807 84.9975 268.262 84.3103C267.717 83.6232 267.041 83.0504 266.275 82.6249C265.509 82.1993 264.666 81.9293 263.795 81.8302C262.924 81.7311 262.042 81.8049 261.2 82.0473L246.875 86.168C245.173 86.6576 243.735 87.8041 242.876 89.3556C242.018 90.907 241.809 92.7362 242.296 94.441C242.785 96.1445 243.929 97.5835 245.477 98.4417C247.025 99.2998 248.85 99.5068 250.551 99.0173Z" fill="white"/>
<path d="M163.007 467.754C245.301 467.754 312.014 460.421 312.014 451.377C312.014 442.332 245.301 435 163.007 435C80.7127 435 14 442.332 14 451.377C14 460.421 80.7127 467.754 163.007 467.754Z" fill="#EBEBEB"/>
<path d="M189.962 50.0817C190.486 50.2427 191.046 50.2441 191.571 50.0857C192.096 49.9273 192.562 49.6162 192.911 49.1918C193.259 48.7674 193.474 48.2488 193.529 47.7017C193.583 47.1546 193.475 46.6036 193.217 46.1184C192.959 45.6332 192.563 45.2358 192.08 44.9763C191.596 44.7169 191.047 44.6071 190.501 44.661C189.956 44.7148 189.438 44.9298 189.015 45.2788C188.591 45.6277 188.28 46.0949 188.122 46.6212C187.91 47.3248 187.984 48.0841 188.329 48.7327C188.674 49.3814 189.261 49.8664 189.962 50.0817Z" fill="#F89E1B"/>
<path opacity="0.95" fill-rule="evenodd" clip-rule="evenodd" d="M79.4217 129.546L79.7202 127.46L87.833 128.634L95.9447 129.808L95.6462 131.895C97.541 133.821 105.798 141.26 105.068 146.365L99.6014 184.574C99.5077 185.233 99.2087 185.846 98.747 186.325C98.2853 186.804 97.6845 187.124 97.0303 187.241C93.9428 187.79 87.8064 188.438 79.34 187.212C70.4178 185.921 65.0581 183.711 62.4414 182.354C61.8588 182.052 61.3844 181.576 61.0841 180.992C60.7838 180.408 60.6724 179.745 60.7656 179.095L66.2493 140.767C66.9736 135.704 77.0631 130.854 79.4217 129.546Z" fill="#DBDBDB"/>
<g style="mix-blend-mode:multiply" opacity="0.3">
<path fill-rule="evenodd" clip-rule="evenodd" d="M95.6464 130.312C95.6464 130.312 92.2426 130.818 87.1562 130.082C82.0698 129.347 79.4251 127.964 79.4251 127.964L79.7236 125.878L95.9531 128.2L95.6464 130.312Z" fill="#DBDBDB"/>
</g>
<path d="M76.6265 142.626C86.0625 145.316 90.3133 145.613 100.268 147.037C102.369 147.338 103.932 149.109 103.631 151.213L99.7516 178.326C99.6258 179.212 99.1807 180.021 98.5002 180.601C97.8198 181.181 96.951 181.492 96.0579 181.475C85.9338 181.261 81.123 180.007 71.8335 176.308L71.8162 176.279L76.6265 142.626Z" fill="#EBEBEB"/>
<path d="M97.9854 128.73C97.8792 129.472 93.2469 129.423 87.6404 128.621C82.0339 127.819 77.5746 126.567 77.6808 125.825L78.1895 122.27L98.494 125.175L97.9854 128.73Z" fill="#EAE4F1"/>
<g style="mix-blend-mode:multiply" opacity="0.3">
<g style="mix-blend-mode:multiply">
<path d="M86.5888 127.907L86.3881 127.879L86.72 125.559L86.9196 125.587L86.5888 127.907Z" fill="#EDB98E"/>
</g>
<g style="mix-blend-mode:multiply">
<path d="M83.8259 127.415L83.6268 127.375L83.9617 125.034L84.1583 125.076L83.8259 127.415Z" fill="#EDB98E"/>
</g>
<g style="mix-blend-mode:multiply">
<path d="M81.3965 126.876L81.199 126.825L81.5383 124.453L81.7344 124.506L81.3965 126.876Z" fill="#EDB98E"/>
</g>
<g style="mix-blend-mode:multiply">
<path d="M78.9956 126.137C78.9279 126.112 78.8638 126.085 78.8018 126.06L79.1445 123.664L79.3362 123.74L78.9956 126.137Z" fill="#EDB98E"/>
</g>
<g style="mix-blend-mode:multiply">
<path d="M96.841 128.641C96.7743 128.648 96.7043 128.655 96.6333 128.661L96.9763 126.264L97.1816 126.244L96.841 128.641Z" fill="#EDB98E"/>
</g>
<g style="mix-blend-mode:multiply">
<path d="M93.9986 128.686L93.7951 128.678L94.1336 126.311L94.3354 126.316L93.9986 128.686Z" fill="#EDB98E"/>
</g>
<g style="mix-blend-mode:multiply">
<path d="M91.5154 128.522L91.3131 128.504L91.6469 126.171L91.8483 126.187L91.5154 128.522Z" fill="#EDB98E"/>
</g>
<g style="mix-blend-mode:multiply">
<path d="M89.047 128.255L88.8463 128.227L89.178 125.908L89.3765 125.936L89.047 128.255Z" fill="#EDB98E"/>
</g>
</g>
<path d="M78.1897 122.268C78.1047 122.862 82.5411 124.282 88.1464 125.083C93.7518 125.885 98.4093 125.767 98.4943 125.173C98.5794 124.579 94.102 123.446 88.4955 122.644C82.889 121.842 78.2748 121.674 78.1897 122.268Z" fill="white"/>
<path d="M97.2363 124.448C97.1441 125.092 93.1218 125.049 88.2516 124.352C83.3814 123.656 79.5097 122.569 79.6019 121.925L79.7432 120.937L97.3743 123.459L97.2363 124.448Z" fill="#DDD7E3"/>
<path d="M88.4262 123.132C93.2955 123.829 97.3028 123.975 97.3767 123.458C97.4506 122.942 93.5632 121.958 88.6939 121.261C83.8246 120.565 79.8173 120.419 79.7434 120.935C79.6694 121.452 83.5569 122.436 88.4262 123.132Z" fill="#EAE4F1"/>
<path d="M87.374 169.57L87.3798 168.798C87.3416 167.189 88.0217 165.491 89.6472 163.846C91.1083 162.387 91.9437 161.314 92.0586 159.979C92.1887 158.473 91.334 157.388 89.4814 157.199C88.4209 157.103 87.3562 157.333 86.4286 157.858L85.8839 155.936C86.9236 155.312 88.6341 154.983 90.1943 155.122C93.5815 155.414 94.9308 157.642 94.7404 159.886C94.5672 161.895 93.3234 163.247 91.7648 164.807C90.335 166.23 89.753 167.491 89.7102 169.003L89.6734 169.775L87.374 169.57ZM86.3674 173.649C86.4619 172.557 87.2638 171.852 88.2944 171.939C89.325 172.027 89.9665 172.858 89.872 173.95C89.7812 174.984 89.0362 175.723 87.9471 175.629C86.9141 175.541 86.2779 174.69 86.3674 173.649Z" fill="#DBDBDB"/>
<path d="M293.311 118.288L292.54 116.528C290.816 112.909 290.636 108.359 292.658 102.965C294.495 98.1622 295.304 94.8755 294.208 91.7242C292.971 88.167 289.925 86.5693 285.522 88.0241C283.014 88.8848 280.827 90.4904 279.253 92.6278L276.06 88.8113C277.789 86.3368 281.342 83.848 285.031 82.5792C293.027 79.7976 298.36 83.491 300.209 88.7857C301.857 93.5268 300.405 97.8653 298.448 102.996C296.646 107.685 296.605 111.143 298.045 114.624L298.746 116.415L293.311 118.288ZM295.171 128.584C294.275 126.005 295.381 123.586 297.813 122.738C300.245 121.89 302.548 123.126 303.444 125.705C304.288 128.146 303.347 130.584 300.776 131.479C298.338 132.329 296.026 131.04 295.171 128.584Z" fill="#CFD4D7"/>
<path opacity="0.95" fill-rule="evenodd" clip-rule="evenodd" d="M186.972 142.164L199.723 186.517C199.895 187.113 199.876 187.747 199.672 188.332C199.467 188.917 199.085 189.424 198.58 189.781C196.309 191.39 191.582 194.153 183.407 196.518C175.639 198.765 169.826 198.951 166.867 198.839C166.24 198.815 165.636 198.593 165.142 198.205C164.648 197.817 164.289 197.282 164.116 196.678L151.397 152.438L186.972 142.164Z" fill="#DBDBDB"/>
<path d="M190.855 155.668C182.427 159.394 173.643 162.255 164.637 164.207C164.174 164.306 163.737 164.499 163.352 164.775C162.967 165.05 162.642 165.402 162.398 165.808C162.154 166.215 161.997 166.667 161.934 167.137C161.872 167.607 161.907 168.085 162.037 168.541L169.18 193.39C169.411 194.204 169.932 194.906 170.645 195.362C171.357 195.818 172.211 195.997 173.046 195.865C182.42 194.378 191.452 191.222 199.713 186.547L199.724 186.517L190.855 155.668Z" fill="#EBEBEB"/>
<path d="M148.502 153.003C148.934 154.504 158.488 153.075 169.844 149.811C181.2 146.546 190.054 142.683 189.622 141.182L187.551 133.976L146.43 145.797L148.502 153.003Z" fill="#EAE4F1"/>
<g style="mix-blend-mode:multiply" opacity="0.3">
<g style="mix-blend-mode:multiply">
<path d="M171.802 148.041L172.209 147.924L170.859 143.227L170.458 143.353L171.802 148.041Z" fill="#EDB98E"/>
</g>
<g style="mix-blend-mode:multiply">
<path d="M177.373 146.232L177.771 146.091L176.408 141.35L176.014 141.493L177.373 146.232Z" fill="#EDB98E"/>
</g>
<g style="mix-blend-mode:multiply">
<path d="M182.236 144.41L182.629 144.249L181.248 139.444L180.859 139.61L182.236 144.41Z" fill="#EDB98E"/>
</g>
<g style="mix-blend-mode:multiply">
<path d="M186.988 142.207L187.365 141.991L185.97 137.139L185.597 137.354L186.988 142.207Z" fill="#EDB98E"/>
</g>
<g style="mix-blend-mode:multiply">
<path d="M150.833 152.496C150.974 152.491 151.118 152.484 151.268 152.476L149.872 147.621C149.724 147.629 149.581 147.635 149.442 147.639L150.833 152.496Z" fill="#EDB98E"/>
</g>
<g style="mix-blend-mode:multiply">
<path d="M156.719 151.771L157.136 151.696L155.758 146.905L155.343 146.973L156.719 151.771Z" fill="#EDB98E"/>
</g>
<g style="mix-blend-mode:multiply">
<path d="M161.806 150.721L162.219 150.625L160.859 145.894L160.448 145.994L161.806 150.721Z" fill="#EDB98E"/>
</g>
<g style="mix-blend-mode:multiply">
<path d="M166.825 149.464L167.23 149.347L165.88 144.652L165.479 144.768L166.825 149.464Z" fill="#EDB98E"/>
</g>
</g>
<path d="M187.546 133.979C187.892 135.183 179.135 139.387 167.781 142.651C156.426 145.915 146.777 147.003 146.431 145.799C146.085 144.594 155.009 140.973 166.365 137.708C177.721 134.443 187.2 132.774 187.546 133.979Z" fill="white"/>
<path d="M148.821 143.939C149.196 145.242 157.495 144.003 167.358 141.167C177.221 138.332 184.911 134.975 184.536 133.671L183.961 131.67L148.246 141.938L148.821 143.939Z" fill="#DDD7E3"/>
<path d="M183.955 131.672C184.256 132.718 176.505 135.864 166.642 138.7C156.779 141.535 148.541 142.985 148.24 141.94C147.94 140.895 155.691 137.748 165.554 134.913C175.416 132.077 183.655 130.627 183.955 131.672Z" fill="#EAE4F1"/>
<path d="M180.867 181.995L180.499 181.163C179.677 179.451 179.594 177.295 180.564 174.735C181.446 172.455 181.835 170.896 181.312 169.404C180.723 167.721 179.268 166.97 177.162 167.668C175.962 168.081 174.916 168.846 174.162 169.862L172.637 168.06C173.466 166.883 175.166 165.697 176.931 165.088C180.756 163.754 183.303 165.494 184.184 168C184.969 170.244 184.272 172.303 183.333 174.738C182.468 176.964 182.446 178.603 183.133 180.25L183.467 181.097L180.867 181.995ZM181.749 186.872C181.323 185.651 181.853 184.503 183.016 184.096C184.18 183.689 185.28 184.27 185.707 185.491C186.109 186.646 185.657 187.804 184.427 188.232C183.261 188.64 182.156 188.034 181.749 186.872Z" fill="#DBDBDB"/>
<path d="M163.418 214.514L226.083 240.125L161.655 303.542L99.5703 238.905L163.418 214.514Z" fill="#FDEDDB"/>
<path d="M162.827 216.857V303.541" stroke="#F7DFC4"/>
<path d="M326.825 213.342L278.797 261.37L162.827 215.685L46.8566 259.028L163.998 302.37V451.14L44.5137 391.398V259.028L-6.10352e-05 214.514L118.313 170L163.998 214.514L208.512 170L326.825 213.342Z" fill="#F7DFC4"/>
<path d="M139.399 253.17L163.998 302.37L43.3425 260.199L23.4284 212.171L139.399 253.17Z" fill="#F89E1B"/>
<path d="M279.968 261.37L298.711 213.342L183.912 251.999L163.998 301.198V451.14L279.968 391.397V261.37Z" fill="#F89E1B"/>
<path d="M270.597 350.398L217.883 373.826V401.94L270.597 377.341V350.398Z" fill="#FDEDDB"/>
<path d="M188.353 55.3875C188.877 55.5485 189.437 55.5499 189.962 55.3915C190.487 55.2331 190.953 54.922 191.301 54.4976C191.65 54.0732 191.865 53.5546 191.919 53.0075C191.974 52.4604 191.865 51.9093 191.607 51.4242C191.349 50.939 190.953 50.5416 190.47 50.2821C189.987 50.0227 189.437 49.9129 188.892 49.9668C188.346 50.0206 187.829 50.2356 187.405 50.5846C186.982 50.9335 186.671 51.4007 186.512 51.927C186.3 52.6306 186.375 53.3899 186.72 54.0385C187.065 54.6871 187.652 55.1722 188.353 55.3875Z" fill="#F89E1B"/>
<path d="M103.404 344.179L103.357 343.398C103.355 343.328 102.846 336.172 96.5998 333.35C90.9168 330.783 87.0479 335.562 86.907 335.772L86.4232 336.389L85.1974 335.429L85.6743 334.815C85.7044 334.749 90.4144 328.841 97.2435 331.925C104.347 335.134 104.894 342.976 104.915 343.306L104.962 344.088L103.404 344.179Z" fill="white"/>
<path d="M120.679 341.8C124.963 345.286 131.262 344.638 134.747 340.354C138.233 336.07 137.585 329.772 133.301 326.286C129.017 322.801 122.718 323.448 119.233 327.732C115.748 332.016 116.395 338.315 120.679 341.8Z" fill="white"/>
<path d="M66.9447 323.866C71.2288 327.352 77.5273 326.704 81.0127 322.42C84.4981 318.136 83.8507 311.838 79.5666 308.352C75.2825 304.867 68.9841 305.514 65.4986 309.798C62.0132 314.083 62.6606 320.381 66.9447 323.866Z" fill="white"/>
<path d="M171.886 7.42816L191.4 60.3278C192.126 62.2979 192.042 64.4754 191.166 66.3814C190.289 68.2874 188.692 69.7656 186.726 70.491L106.408 100.119C104.442 100.844 102.267 100.757 100.363 99.8768C98.4587 98.9967 96.9805 97.3954 96.2538 95.4254L76.7401 42.5257C76.0134 40.5556 76.0976 38.3781 76.9742 36.4721C77.8507 34.5662 79.4479 33.0879 81.4143 32.3625L161.732 2.73497C163.698 2.0096 165.873 2.09656 167.777 2.97671C169.681 3.85685 171.159 5.45808 171.886 7.42816Z" fill="#E7E7E7"/>
<g style="mix-blend-mode:multiply" opacity="0.25">
<path d="M155.768 11.4857C157.269 10.9315 158.901 10.8358 160.458 11.2106C162.014 11.5855 163.425 12.414 164.512 13.5914C165.6 14.7689 166.314 16.2423 166.565 17.8254C166.817 19.4085 166.594 21.0301 165.925 22.4851C165.255 23.9402 164.17 25.1632 162.806 25.9997C161.442 26.8361 159.86 27.2483 158.261 27.1842C156.662 27.12 155.117 26.5824 153.822 25.6392C152.527 24.6961 151.54 23.3899 150.985 21.8857C150.617 20.8875 150.449 19.8267 150.49 18.7638C150.531 17.7009 150.78 16.6568 151.225 15.6911C151.669 14.7253 152.299 13.8569 153.078 13.1353C153.858 12.4138 154.772 11.8532 155.768 11.4857Z" fill="#E5E5E5"/>
</g>
<g style="mix-blend-mode:multiply" opacity="0.25">
<path d="M95.9848 55.5014C97.4858 54.9473 99.1178 54.8516 100.674 55.2264C102.231 55.6012 103.642 56.4297 104.729 57.6072C105.816 58.7846 106.531 60.2581 106.782 61.8412C107.033 63.4242 106.81 65.0458 106.141 66.5009C105.472 67.9559 104.387 69.179 103.023 70.0154C101.658 70.8519 100.077 71.2641 98.4775 71.1999C96.8783 71.1357 95.3335 70.5981 94.0384 69.655C92.7433 68.7119 91.7561 67.4056 91.2017 65.9015C90.8335 64.9033 90.6651 63.8425 90.7062 62.7796C90.7473 61.7167 90.997 60.6726 91.4412 59.7068C91.8853 58.7411 92.5152 57.8726 93.2948 57.1511C94.0744 56.4295 94.9885 55.869 95.9848 55.5014Z" fill="#E5E5E5"/>
</g>
<path d="M107.805 65.3988C108.701 61.3984 106.188 57.4242 102.192 56.5222C98.1966 55.6202 94.2311 58.1319 93.3353 62.1323C92.4394 66.1327 94.9524 70.1068 98.9482 71.0089C102.944 71.9109 106.909 69.3991 107.805 65.3988Z" fill="#CDD1D4"/>
<path d="M99.9195 57.4128C101.175 57.2844 102.441 57.5319 103.558 58.124C104.674 58.7161 105.59 59.6261 106.191 60.7391C106.791 61.8521 107.048 63.1179 106.931 64.3766C106.813 65.6352 106.325 66.8302 105.528 67.8102C104.732 68.7902 103.663 69.5114 102.456 69.8824C101.25 70.2534 99.9599 70.2577 98.7501 69.8947C97.5403 69.5316 96.4647 68.8176 95.6595 67.8428C94.8542 66.8681 94.3554 65.6764 94.2261 64.4186C94.14 63.5836 94.219 62.7401 94.4585 61.9361C94.6981 61.1321 95.0935 60.3835 95.6222 59.7329C96.1509 59.0823 96.8025 58.5426 97.5399 58.1445C98.2772 57.7464 99.0858 57.4978 99.9195 57.4128Z" fill="#CDD1D4"/>
<path d="M99.19 57.4878L100.492 70.197L100.836 70.4589C100.959 70.5548 101.114 70.6002 101.269 70.586C101.424 70.5717 101.568 70.4988 101.671 70.3821L101.958 70.0449L100.656 57.3358L100.309 57.0705C100.185 56.9746 100.029 56.9293 99.8733 56.9439C99.7174 56.9584 99.573 57.0317 99.4691 57.1488L99.19 57.4878Z" fill="#EBEBEB"/>
<path d="M99.4734 57.1606L99.1928 57.4955L100.495 70.2046L100.839 70.4666C100.962 70.5619 101.117 70.6058 101.272 70.5891L99.874 56.9503C99.7186 56.9671 99.5755 57.0423 99.4734 57.1606Z" fill="#EBEBEB"/>
<g style="mix-blend-mode:screen" opacity="0.3">
<path d="M106.829 59.3631C107.508 59.5082 109.143 62.4013 108.51 65.4048C107.876 68.4083 105.213 70.3858 104.536 70.24C103.858 70.0941 105.949 67.9971 106.582 64.9937C107.216 61.9902 106.152 59.2193 106.829 59.3631Z" fill="white"/>
</g>
<g style="mix-blend-mode:multiply" opacity="0.25">
<path d="M99.6004 45.542C100.475 41.156 97.6322 36.8863 93.2514 36.0053C88.8705 35.1244 84.6103 37.9658 83.736 42.3519C82.8616 46.7379 85.7042 51.0076 90.0851 51.8885C94.4659 52.7694 98.7261 49.928 99.6004 45.542Z" fill="#E5E5E5"/>
</g>
<path d="M96.0605 51.5777C99.8966 50.1474 101.845 45.8723 100.412 42.029C98.9788 38.1857 94.7074 36.2296 90.8714 37.6599C87.0353 39.0903 85.0872 43.3653 86.5201 47.2086C87.9531 51.0519 92.2245 53.008 96.0605 51.5777Z" fill="#CDD1D4"/>
<path d="M87.1616 43.5796C87.3679 42.3322 87.939 41.1744 88.8027 40.2528C89.6665 39.3312 90.7841 38.6871 92.0141 38.4021C93.2442 38.117 94.5315 38.2037 95.7132 38.6513C96.895 39.0988 97.918 39.8871 98.6531 40.9164C99.3881 41.9457 99.8022 43.1698 99.8428 44.4339C99.8833 45.698 99.5487 46.9453 98.8812 48.0181C98.2136 49.0909 97.2431 49.941 96.0925 50.4608C94.9418 50.9806 93.6626 51.1469 92.4167 50.9385C90.7466 50.6587 89.2549 49.7264 88.2695 48.3465C87.2841 46.9666 86.8856 45.2521 87.1616 43.5796Z" fill="#CDD1D4"/>
<path d="M87.036 44.3087L99.6338 46.4091L99.9777 46.1456C100.101 46.0512 100.184 45.9134 100.21 45.76C100.235 45.6067 100.202 45.4492 100.116 45.3193L99.8726 44.9465L87.2789 42.8446L86.9336 43.1108C86.8096 43.2055 86.7264 43.3442 86.7013 43.4985C86.6762 43.6528 86.711 43.8109 86.7986 43.9404L87.036 44.3087Z" fill="#EBEBEB"/>
<path d="M86.8014 43.9471L87.0407 44.3077L99.6344 46.4096L99.9784 46.1462C100.101 46.0521 100.184 45.9149 100.211 45.762L86.7036 43.5065C86.6786 43.6605 86.7136 43.8182 86.8014 43.9471Z" fill="#EBEBEB"/>
<g style="mix-blend-mode:screen" opacity="0.3">
<path d="M99.7176 40.2228C100.396 40.3658 102.032 43.259 101.398 46.2624C100.765 49.2659 98.1012 51.2434 97.4246 51.0996C96.7479 50.9559 98.8396 48.8561 99.4711 45.8533C100.103 42.8506 99.0402 40.077 99.7176 40.2228Z" fill="white"/>
</g>
<g style="mix-blend-mode:multiply" opacity="0.25">
<path d="M112.984 86.6176C115.179 82.7243 113.805 77.7819 109.914 75.5785C106.024 73.3751 101.09 74.7452 98.8948 78.6385C96.6992 82.5319 98.0733 87.4743 101.964 89.6777C105.854 91.881 110.788 90.511 112.984 86.6176Z" fill="#E5E5E5"/>
</g>
<g style="mix-blend-mode:screen" opacity="0.3">
<path d="M104.792 75.253C106.379 74.6662 108.104 74.5642 109.75 74.9598C111.396 75.3553 112.889 76.2307 114.039 77.4752C115.189 78.7197 115.945 80.2774 116.211 81.9512C116.478 83.625 116.243 85.3398 115.536 86.8786C114.829 88.4173 113.682 89.711 112.239 90.596C110.797 91.4809 109.125 91.9173 107.434 91.85C105.743 91.7827 104.109 91.2147 102.74 90.2179C101.37 89.2211 100.326 87.8402 99.7392 86.2499C98.9531 84.1188 99.0437 81.7634 99.9911 79.7013C100.939 77.6392 102.665 76.0392 104.792 75.253Z" fill="white"/>
</g>
<g style="mix-blend-mode:screen" opacity="0.3">
<path d="M113.98 78.8848C114.658 79.0278 116.294 81.921 115.66 84.9244C115.027 87.9279 112.363 89.9054 111.687 89.7616C111.01 89.6179 113.102 87.5181 113.733 84.5153C114.365 81.5126 113.302 78.739 113.98 78.8848Z" fill="white"/>
</g>
<g style="mix-blend-mode:multiply" opacity="0.25">
<path d="M118.27 47.0828C119.771 46.5293 121.402 46.434 122.958 46.809C124.514 47.184 125.924 48.0124 127.011 49.1896C128.098 50.3667 128.812 51.8396 129.063 53.4221C129.314 55.0046 129.091 56.6256 128.422 58.0801C127.753 59.5346 126.668 60.7572 125.305 61.5934C123.941 62.4296 122.36 62.8418 120.762 62.7779C119.163 62.714 117.619 62.1768 116.324 61.2343C115.029 60.2918 114.042 58.9863 113.487 57.4829C112.744 55.4669 112.83 53.2386 113.727 51.2882C114.624 49.3378 116.258 47.8251 118.27 47.0828Z" fill="#E5E5E5"/>
</g>
<g style="mix-blend-mode:screen" opacity="0.3">
<path d="M119.929 47.3136C121.516 46.7277 123.241 46.6265 124.887 47.0228C126.532 47.419 128.024 48.2949 129.174 49.5397C130.323 50.7845 131.079 52.3423 131.345 54.016C131.61 55.6897 131.375 57.4042 130.668 58.9427C129.96 60.4811 128.813 61.7744 127.371 62.659C125.929 63.5435 124.257 63.9796 122.566 63.9121C120.875 63.8446 119.242 63.2765 117.872 62.2797C116.503 61.2829 115.459 59.9021 114.872 58.3121C114.086 56.1803 114.177 53.824 115.125 51.7615C116.073 49.6989 117.801 48.099 119.929 47.3136Z" fill="white"/>
</g>
<g style="mix-blend-mode:screen" opacity="0.3">
<path d="M129.117 50.9461C129.795 51.0919 131.431 53.9822 130.798 56.9857C130.164 59.9892 127.502 61.9687 126.822 61.8236C126.143 61.6786 128.237 59.5801 128.871 56.5766C129.504 53.5731 128.439 50.8031 129.117 50.9461Z" fill="white"/>
</g>
<g style="mix-blend-mode:multiply" opacity="0.25">
<path d="M111.159 27.9411C112.66 27.387 114.292 27.2913 115.849 27.666C117.405 28.0408 118.816 28.8692 119.903 30.0465C120.99 31.2237 121.705 32.697 121.956 34.28C122.208 35.863 121.985 37.4845 121.316 38.9396C120.647 40.3946 119.562 41.6178 118.198 42.4544C116.834 43.291 115.253 43.7035 113.654 43.6397C112.055 43.5758 110.51 43.0386 109.214 42.0958C107.919 41.153 106.932 39.8471 106.377 38.3432C106.008 37.3449 105.84 36.2839 105.881 35.2209C105.922 34.1578 106.171 33.1135 106.615 32.1475C107.059 31.1815 107.689 30.3129 108.469 29.5911C109.249 28.8694 110.163 28.3087 111.159 27.9411Z" fill="#E5E5E5"/>
</g>
<path d="M122.485 39.3255C124.197 35.6024 122.57 31.1906 118.85 29.4714C115.13 27.7522 110.727 29.3766 109.014 33.0996C107.302 36.8226 108.93 41.2344 112.649 42.9536C116.369 44.6729 120.773 43.0485 122.485 39.3255Z" fill="#CDD1D4"/>
<path d="M121.879 34.4126C120.881 31.0257 117.331 29.0873 113.95 30.0831C110.569 31.0788 108.638 34.6316 109.636 38.0185C110.634 41.4054 114.185 43.3438 117.565 42.3481C120.946 41.3523 122.878 37.7995 121.879 34.4126Z" fill="#CDD1D4"/>
<path d="M114.367 29.9283L115.669 42.6374L116.013 42.8993C116.136 42.9957 116.291 43.0415 116.446 43.0272C116.602 43.0129 116.746 42.9397 116.849 42.8225L117.133 42.4861L115.833 29.7762L115.484 29.5117C115.361 29.4153 115.205 29.3697 115.05 29.3841C114.894 29.3985 114.75 29.4719 114.646 29.5893L114.367 29.9283Z" fill="#EBEBEB"/>
<path d="M114.642 29.6053L114.361 29.9402L115.663 42.6493L116.007 42.9112C116.13 43.0061 116.284 43.0502 116.438 43.0345L115.046 29.3867C114.888 29.404 114.743 29.4824 114.642 29.6053Z" fill="#EBEBEB"/>
<g style="mix-blend-mode:screen" opacity="0.3">
<path d="M122.006 31.8047C122.683 31.9485 124.32 34.8408 123.687 37.8443C123.053 40.8478 120.39 42.8253 119.71 42.6802C119.031 42.5352 121.125 40.4367 121.759 37.4332C122.393 34.4297 121.327 31.6596 122.006 31.8047Z" fill="white"/>
</g>
<g style="mix-blend-mode:multiply" opacity="0.25">
<path d="M136.305 74.1475C136.275 69.674 132.629 66.0673 128.162 66.0918C123.695 66.1162 120.098 69.7626 120.128 74.2361C120.157 78.7097 123.803 82.3164 128.27 82.2919C132.737 82.2674 136.334 78.6211 136.305 74.1475Z" fill="#E5E5E5"/>
</g>
<path d="M129.253 67.4881C130.712 67.3402 132.182 67.6287 133.478 68.3173C134.774 69.0059 135.837 70.0636 136.534 71.3566C137.23 72.6496 137.529 74.12 137.391 75.5817C137.253 77.0435 136.686 78.431 135.76 79.5689C134.835 80.7068 133.593 81.5439 132.192 81.9744C130.79 82.4049 129.292 82.4095 127.887 81.9876C126.482 81.5656 125.233 80.7362 124.298 79.604C123.363 78.4718 122.784 77.0878 122.633 75.6269C122.534 74.6566 122.626 73.6763 122.905 72.742C123.183 71.8078 123.643 70.9379 124.258 70.1821C124.873 69.4263 125.63 68.7994 126.487 68.3371C127.344 67.8749 128.284 67.5864 129.253 67.4881Z" fill="#CDD1D4"/>
<path d="M129.36 68.5147C130.616 68.3873 131.882 68.6356 132.998 69.2283C134.113 69.8211 135.029 70.7316 135.628 71.8448C136.228 72.958 136.485 74.2238 136.366 75.4822C136.248 76.7407 135.759 77.9352 134.962 78.9148C134.166 79.8943 133.096 80.6149 131.89 80.9855C130.683 81.356 129.394 81.3598 128.184 80.9964C126.975 80.6331 125.9 79.9188 125.095 78.944C124.29 77.9692 123.791 76.7776 123.662 75.5199C123.576 74.6847 123.656 73.841 123.896 73.0369C124.136 72.2328 124.532 71.4841 125.061 70.8336C125.59 70.183 126.242 69.6435 126.98 69.2456C127.717 68.8477 128.526 68.5994 129.36 68.5147Z" fill="#CDD1D4"/>
<path d="M128.629 68.5909L129.931 81.3L130.275 81.562C130.398 81.6584 130.553 81.7041 130.708 81.6899C130.864 81.6756 131.008 81.6024 131.111 81.4852L131.395 81.1488L130.095 68.4389L129.746 68.1744C129.623 68.0775 129.467 68.0315 129.311 68.0459C129.156 68.0603 129.011 68.1341 128.908 68.2519L128.629 68.5909Z" fill="#EBEBEB"/>
<path d="M128.904 68.2683L128.623 68.6032L129.925 81.3123L130.269 81.5743C130.392 81.6692 130.546 81.7133 130.7 81.6975L129.302 68.0588C129.148 68.0753 129.005 68.1502 128.904 68.2683Z" fill="#EBEBEB"/>
<g style="mix-blend-mode:screen" opacity="0.3">
<path d="M136.267 70.465C136.944 70.6109 138.582 73.5032 137.948 76.5067C137.315 79.5102 134.651 81.4877 133.974 81.3419C133.297 81.1961 135.387 79.0991 136.021 76.0956C136.654 73.0921 135.588 70.322 136.267 70.465Z" fill="white"/>
</g>
<g style="mix-blend-mode:multiply" opacity="0.25">
<path d="M140.581 38.8529C142.081 38.2993 143.713 38.204 145.269 38.579C146.824 38.954 148.235 39.7824 149.321 40.9596C150.408 42.1367 151.122 43.6097 151.373 45.1922C151.624 46.7747 151.401 48.3956 150.732 49.8501C150.063 51.3046 148.979 52.5272 147.615 53.3634C146.251 54.1996 144.67 54.6118 143.072 54.5479C141.473 54.484 139.929 53.9468 138.634 53.0043C137.339 52.0618 136.352 50.7563 135.798 49.2529C135.054 47.2369 135.14 45.0086 136.037 43.0583C136.934 41.1079 138.569 39.5951 140.581 38.8529Z" fill="#E5E5E5"/>
</g>
<path d="M152.379 45.4098C151.429 41.4195 147.431 38.9514 143.447 39.8972C139.464 40.8429 137.004 44.8443 137.953 48.8345C138.902 52.8248 142.901 55.2929 146.885 54.3472C150.868 53.4015 153.328 49.4001 152.379 45.4098Z" fill="#CDD1D4"/>
<path d="M144.515 40.766C145.771 40.6385 147.037 40.8869 148.152 41.4796C149.268 42.0724 150.184 42.9829 150.783 44.0961C151.383 45.2092 151.64 46.4751 151.521 47.7335C151.403 48.992 150.914 50.1865 150.117 51.166C149.32 52.1456 148.251 52.8662 147.045 53.2367C145.838 53.6073 144.549 53.6111 143.339 53.2477C142.13 52.8843 141.054 52.1701 140.25 51.1953C139.445 50.2205 138.946 49.0289 138.817 47.7712C138.644 46.0845 139.148 44.3991 140.216 43.0854C141.285 41.7718 142.831 40.9375 144.515 40.766Z" fill="#CDD1D4"/>
<path d="M143.784 40.8423L145.084 53.5522L145.429 53.8162C145.552 53.9121 145.707 53.9575 145.862 53.9433C146.017 53.929 146.161 53.8561 146.264 53.7394L146.551 53.4022L145.251 40.6924L144.901 40.4279C144.778 40.3314 144.623 40.2858 144.467 40.3002C144.311 40.3146 144.167 40.388 144.064 40.5054L143.784 40.8423Z" fill="#EBEBEB"/>
<path d="M144.071 40.5106L143.791 40.8455L145.091 53.5554L145.435 53.8194C145.559 53.9141 145.714 53.9579 145.868 53.9419L144.47 40.3031C144.316 40.3199 144.174 40.3939 144.071 40.5106Z" fill="#EBEBEB"/>
<g style="mix-blend-mode:screen" opacity="0.3">
<path d="M151.425 42.7172C152.102 42.863 153.739 45.7533 153.106 48.7568C152.472 51.7603 149.809 53.7378 149.13 53.5948C148.451 53.4517 150.545 51.3512 151.179 48.3477C151.812 45.3442 150.746 42.5742 151.425 42.7172Z" fill="white"/>
</g>
<g style="mix-blend-mode:multiply" opacity="0.25">
<path d="M142.086 32.9515C145.192 29.7398 145.106 24.6116 141.895 21.4975C138.684 18.3833 133.564 18.4623 130.458 21.6741C127.352 24.8858 127.437 30.0139 130.648 33.1281C133.859 36.2423 138.98 36.1632 142.086 32.9515Z" fill="#E5E5E5"/>
</g>
<g style="mix-blend-mode:screen" opacity="0.3">
<path d="M135.125 19.9419C136.712 19.3564 138.437 19.2557 140.082 19.6522C141.728 20.0488 143.219 20.925 144.369 22.17C145.518 23.4149 146.273 24.9727 146.539 26.6464C146.804 28.3201 146.568 30.0344 145.861 31.5727C145.154 33.1109 144.006 34.404 142.564 35.2884C141.122 36.1728 139.45 36.6087 137.759 36.5411C136.068 36.4735 134.435 35.9054 133.066 34.9086C131.696 33.9118 130.652 32.5311 130.066 30.9411C129.676 29.8854 129.498 28.7634 129.542 27.6393C129.585 26.5152 129.849 25.4109 130.319 24.3895C130.789 23.3682 131.455 22.4497 132.28 21.6866C133.104 20.9234 134.071 20.3306 135.125 19.9419Z" fill="white"/>
</g>
<g style="mix-blend-mode:screen" opacity="0.3">
<path d="M144.313 23.5741C144.991 23.7199 146.628 26.6123 145.995 29.6158C145.361 32.6193 142.698 34.5968 142.018 34.4517C141.339 34.3066 143.433 32.2081 144.067 29.2046C144.701 26.2012 143.635 23.4311 144.313 23.5741Z" fill="white"/>
</g>
<g style="mix-blend-mode:multiply" opacity="0.25">
<path d="M147.73 58.3761C149.231 57.8221 150.862 57.7264 152.418 58.101C153.974 58.4757 155.385 59.3039 156.472 60.4809C157.558 61.6578 158.273 63.1307 158.524 64.7133C158.776 66.2958 158.553 67.9169 157.884 69.3716C157.215 70.8262 156.131 72.0491 154.767 72.8855C153.404 73.7218 151.822 74.1342 150.224 74.0704C148.625 74.0066 147.081 73.4695 145.786 72.5269C144.491 71.5844 143.504 70.2789 142.949 68.7754C142.205 66.7597 142.291 64.5319 143.188 62.5817C144.085 60.6315 145.718 59.1188 147.73 58.3761Z" fill="#E5E5E5"/>
</g>
<path d="M148.849 60.0799C150.145 59.394 151.616 59.1087 153.075 59.2601C154.535 59.4115 155.917 59.9929 157.047 60.9306C158.178 61.8684 159.005 63.1204 159.426 64.5283C159.846 65.9363 159.84 67.437 159.409 68.8405C158.977 70.2441 158.14 71.4875 157.002 72.4136C155.864 73.3397 154.478 73.9068 153.017 74.0431C151.557 74.1795 150.088 73.8791 148.797 73.1798C147.506 72.4806 146.451 71.4139 145.765 70.1147C144.845 68.3727 144.653 66.3371 145.232 64.4555C145.81 62.5738 147.111 61 148.849 60.0799Z" fill="#CDD1D4"/>
<path d="M149.331 60.9931C150.447 60.4031 151.712 60.1578 152.968 60.2883C154.224 60.4189 155.413 60.9193 156.386 61.7263C157.358 62.5333 158.07 63.6107 158.432 64.8223C158.794 66.0339 158.789 67.3252 158.418 68.533C158.046 69.7408 157.326 70.8109 156.347 71.6078C155.368 72.4048 154.175 72.893 152.918 73.0105C151.661 73.1281 150.398 72.8698 149.287 72.2684C148.176 71.6669 147.267 70.7493 146.676 69.6315C145.884 68.132 145.719 66.3796 146.217 64.7597C146.715 63.1398 147.835 61.7849 149.331 60.9931Z" fill="#CDD1D4"/>
<path d="M148.684 61.3369L154.656 72.6427L155.073 72.7575C155.223 72.7985 155.382 72.7809 155.52 72.7083C155.657 72.6357 155.762 72.5135 155.813 72.3664L155.958 71.9519L149.987 60.6481L149.565 60.5328C149.415 60.4927 149.255 60.5109 149.117 60.584C148.98 60.657 148.875 60.7794 148.824 60.9267L148.684 61.3369Z" fill="#EBEBEB"/>
<path d="M148.83 60.9239L148.691 61.3341L154.663 72.64L155.079 72.7548C155.228 72.795 155.387 72.7778 155.523 72.7066L149.12 60.5812C148.983 60.6547 148.88 60.7772 148.83 60.9239Z" fill="#EBEBEB"/>
<g style="mix-blend-mode:screen" opacity="0.3">
<path d="M158.575 62.236C159.253 62.3818 160.89 65.2742 160.257 68.2777C159.623 71.2812 156.96 73.2586 156.28 73.1136C155.601 72.9685 157.695 70.87 158.329 67.8665C158.962 64.863 157.897 62.093 158.575 62.236Z" fill="white"/>
</g>
<g style="mix-blend-mode:multiply" opacity="0.25">
<path d="M162.888 30.624C164.389 30.0709 166.02 29.976 167.576 30.3513C169.132 30.7267 170.542 31.5553 171.628 32.7326C172.714 33.9099 173.428 35.3829 173.679 36.9654C173.93 38.5478 173.707 40.1687 173.038 41.623C172.368 43.0773 171.284 44.2997 169.92 45.1357C168.556 45.9717 166.975 46.3838 165.377 46.3198C163.778 46.2557 162.234 45.7185 160.94 44.776C159.645 43.8335 158.658 42.5281 158.103 41.0248C157.735 40.0264 157.567 38.9654 157.608 37.9023C157.649 36.8392 157.899 35.795 158.343 34.8291C158.788 33.8633 159.418 32.9948 160.198 32.2733C160.977 31.5517 161.892 30.9913 162.888 30.624Z" fill="#E5E5E5"/>
</g>
<path d="M172.55 44.3069C175.537 41.5053 175.688 36.8066 172.887 33.812C170.085 30.8174 165.393 30.661 162.406 33.4626C159.419 36.2642 159.269 40.963 162.07 43.9576C164.871 46.9521 169.564 47.1086 172.55 44.3069Z" fill="#F1F1F1"/>
<path d="M173.866 38.6766C173.736 35.1486 170.775 32.3907 167.252 32.5165C163.729 32.6424 160.979 35.6044 161.109 39.1324C161.239 42.6604 164.2 45.4183 167.723 45.2925C171.245 45.1666 173.996 42.2046 173.866 38.6766Z" fill="#DCDFE1"/>
<path d="M166.101 32.6099L167.401 45.3198L167.746 45.5838C167.869 45.6797 168.024 45.7251 168.179 45.7108C168.334 45.6966 168.478 45.6237 168.581 45.507L168.868 45.1698L167.568 32.4599L167.219 32.1954C167.095 32.099 166.94 32.0533 166.784 32.0678C166.629 32.0822 166.484 32.1556 166.381 32.273L166.101 32.6099Z" fill="#F1F1F1"/>
<path d="M166.377 32.2831L166.096 32.618L167.396 45.3279L167.741 45.5919C167.864 45.6866 168.019 45.7304 168.174 45.7144L166.776 32.0757C166.621 32.0914 166.479 32.1656 166.377 32.2831Z" fill="#F1F1F1"/>
<g style="mix-blend-mode:screen" opacity="0.3">
<path d="M173.724 34.4914C174.404 34.6364 176.04 37.5268 175.407 40.5303C174.773 43.5338 172.111 45.5133 171.431 45.3682C170.752 45.2231 172.846 43.1247 173.48 40.1212C174.113 37.1177 173.056 34.3446 173.724 34.4914Z" fill="white"/>
</g>
<path d="M157.041 13.1149C158.352 12.4584 159.828 12.2061 161.283 12.39C162.738 12.5738 164.107 13.1855 165.216 14.1477C166.325 15.11 167.124 16.3795 167.513 17.7959C167.902 19.2122 167.863 20.7117 167.401 22.1048C166.939 23.4979 166.075 24.7221 164.917 25.6224C163.76 26.5228 162.362 27.059 160.899 27.1632C159.437 27.2674 157.975 26.9349 156.701 26.2078C155.426 25.4807 154.394 24.3916 153.737 23.0783C153.3 22.206 153.039 21.2564 152.969 20.2836C152.898 19.3108 153.02 18.3339 153.327 17.4086C153.634 16.4834 154.12 15.628 154.757 14.8913C155.394 14.1546 156.171 13.551 157.041 13.1149Z" fill="#F1F1F1"/>
<path d="M157.503 14.0383C158.631 13.4719 159.903 13.2537 161.156 13.4111C162.409 13.5685 163.588 14.0946 164.544 14.9228C165.5 15.751 166.189 16.8441 166.524 18.0638C166.86 19.2836 166.827 20.5751 166.43 21.7752C166.032 22.9752 165.288 24.0299 164.291 24.8057C163.295 25.5815 162.091 26.0436 160.831 26.1336C159.571 26.2236 158.313 25.9374 157.215 25.3112C156.116 24.6851 155.228 23.7471 154.662 22.6159C153.903 21.0997 153.775 19.3444 154.308 17.736C154.841 16.1275 155.99 14.7975 157.503 14.0383Z" fill="#DCDFE1"/>
<path d="M156.847 14.3683L162.57 25.8007L162.985 25.9252C163.134 25.9696 163.294 25.9557 163.433 25.8864C163.572 25.8171 163.68 25.6974 163.734 25.5516L163.888 25.141L158.166 13.7127L157.746 13.5877C157.596 13.5434 157.435 13.5579 157.296 13.6282C157.157 13.6985 157.049 13.8193 156.996 13.9661L156.847 14.3683Z" fill="#F1F1F1"/>
<path d="M156.995 13.9619L156.847 14.3682L162.57 25.8006L162.985 25.925C163.134 25.9692 163.294 25.9549 163.432 25.885L157.293 13.625C157.154 13.6954 157.048 13.8157 156.995 13.9619Z" fill="#F1F1F1"/>
<g style="mix-blend-mode:screen" opacity="0.3">
<path d="M166.62 15.3473C167.299 15.4903 168.936 18.3827 168.303 21.3862C167.669 24.3897 165.006 26.3672 164.327 26.2221C163.647 26.077 165.742 23.9785 166.375 20.975C167.009 17.9715 165.943 15.2015 166.62 15.3473Z" fill="white"/>
</g>
<g style="mix-blend-mode:multiply" opacity="0.25">
<path d="M177.499 64.3888C181.151 61.8175 182.027 56.7654 179.455 53.1045C176.883 49.4437 171.837 48.5605 168.185 51.1317C164.532 53.703 163.656 58.7552 166.228 62.416C168.8 66.0768 173.846 66.9601 177.499 64.3888Z" fill="#E5E5E5"/>
</g>
<path d="M171.342 51.7556C172.657 51.1071 174.135 50.8638 175.589 51.0565C177.043 51.2493 178.408 51.8694 179.511 52.8384C180.614 53.8075 181.406 55.0819 181.786 56.5007C182.166 57.9194 182.118 59.4187 181.647 60.809C181.177 62.1992 180.305 63.418 179.142 64.3113C177.979 65.2045 176.577 65.732 175.114 65.8271C173.651 65.9222 172.192 65.5806 170.922 64.8456C169.651 64.1105 168.626 63.015 167.977 61.6975C167.546 60.8227 167.291 59.8715 167.227 58.8984C167.162 57.9253 167.29 56.9492 167.603 56.026C167.915 55.1028 168.406 54.2505 169.048 53.5178C169.69 52.7851 170.469 52.1863 171.342 51.7556Z" fill="#F1F1F1"/>
<path d="M171.803 52.6809C172.935 52.1222 174.208 51.9126 175.46 52.0785C176.713 52.2444 177.888 52.7785 178.838 53.613C179.788 54.4476 180.47 55.5452 180.797 56.7671C181.125 57.9889 181.083 59.2802 180.678 60.4775C180.272 61.6748 179.521 62.7243 178.519 63.4934C177.518 64.2625 176.311 64.7166 175.05 64.7983C173.79 64.8799 172.534 64.5855 171.44 63.9521C170.346 63.3188 169.464 62.3751 168.905 61.2403C168.155 59.7189 168.04 57.9625 168.583 56.3574C169.127 54.7523 170.285 53.4298 171.803 52.6809Z" fill="#DCDFE1"/>
<path d="M171.142 53.0079L176.793 64.4762L177.206 64.6014C177.355 64.6468 177.516 64.6341 177.656 64.5658C177.795 64.4974 177.904 64.3786 177.96 64.2332L178.114 63.8246L172.461 52.3571L172.042 52.2293C171.893 52.1843 171.732 52.198 171.592 52.2675C171.453 52.3371 171.345 52.4572 171.291 52.6036L171.142 53.0079Z" fill="#F1F1F1"/>
<path d="M171.293 52.6026L171.142 53.0077L176.793 64.476L177.206 64.6012C177.355 64.6468 177.515 64.6339 177.655 64.5652L171.594 52.2671C171.454 52.3358 171.346 52.456 171.293 52.6026Z" fill="#F1F1F1"/>
<g style="mix-blend-mode:screen" opacity="0.3">
<path d="M180.881 54.0076C181.561 54.1527 183.198 57.0451 182.565 60.0485C181.931 63.052 179.268 65.0295 178.588 64.8844C177.909 64.7394 180.003 62.6409 180.637 59.6374C181.27 56.6339 180.205 53.8638 180.881 54.0076Z" fill="white"/>
</g>
<g style="mix-blend-mode:screen" opacity="0.3">
<path d="M142.238 39.0842C143.825 38.4988 145.55 38.398 147.196 38.7946C148.841 39.1912 150.333 40.0673 151.482 41.3123C152.631 42.5572 153.387 44.115 153.652 45.7887C153.918 47.4624 153.682 49.1767 152.975 50.715C152.267 52.2533 151.12 53.5464 149.678 54.4307C148.235 55.3151 146.563 55.7511 144.873 55.6835C143.182 55.6159 141.549 55.0477 140.179 54.0509C138.81 53.0541 137.766 51.6734 137.179 50.0834C136.79 49.0277 136.611 47.9057 136.655 46.7815C136.698 45.6573 136.962 44.5529 137.432 43.5315C137.902 42.51 138.568 41.5916 139.393 40.8285C140.217 40.0654 141.184 39.4727 142.238 39.0842Z" fill="white"/>
</g>
<g style="mix-blend-mode:screen" opacity="0.3">
<path d="M149.385 58.6014C150.972 58.016 152.697 57.9152 154.343 58.3118C155.988 58.7084 157.48 59.5846 158.629 60.8295C159.778 62.0744 160.533 63.6322 160.799 65.3059C161.065 66.9796 160.829 68.694 160.121 70.2322C159.414 71.7705 158.266 73.0636 156.824 73.948C155.382 74.8323 153.71 75.2683 152.019 75.2007C150.329 75.1331 148.695 74.5649 147.326 73.5681C145.957 72.5713 144.913 71.1906 144.326 69.6006C143.937 68.5449 143.759 67.423 143.802 66.2988C143.846 65.1747 144.11 64.0705 144.579 63.0491C145.049 62.0277 145.715 61.1092 146.54 60.3461C147.364 59.583 148.331 58.9901 149.385 58.6014Z" fill="white"/>
</g>
<g style="mix-blend-mode:screen" opacity="0.3">
<path d="M127.078 66.8301C128.665 66.2442 130.39 66.143 132.036 66.5392C133.682 66.9355 135.174 67.8114 136.323 69.0562C137.473 70.301 138.228 71.8588 138.494 73.5325C138.76 75.2062 138.524 76.9207 137.817 78.4591C137.11 79.9976 135.962 81.2909 134.52 82.1754C133.078 83.06 131.406 83.4961 129.715 83.4286C128.024 83.3611 126.391 82.793 125.022 81.7962C123.652 80.7994 122.608 79.4186 122.021 77.8285C121.235 75.6967 121.326 73.3405 122.274 71.278C123.223 69.2155 124.95 67.6155 127.078 66.8301Z" fill="white"/>
</g>
<g style="mix-blend-mode:screen" opacity="0.3">
<path d="M109.168 64.081C109.328 59.3525 105.63 55.3851 100.908 55.2194C96.1857 55.0537 92.2284 58.7526 92.0687 63.481C91.909 68.2095 95.6074 72.1769 100.329 72.3426C105.051 72.5083 109.009 68.8094 109.168 64.081Z" fill="white"/>
</g>
<g style="mix-blend-mode:screen" opacity="0.3">
<path d="M112.817 28.1708C114.404 27.5849 116.13 27.4837 117.775 27.88C119.421 28.2762 120.913 29.1521 122.062 30.3969C123.212 31.6417 123.967 33.1995 124.233 34.8732C124.499 36.5469 124.264 38.2614 123.556 39.7998C122.849 41.3383 121.702 42.6316 120.26 43.5161C118.817 44.4007 117.145 44.8368 115.454 44.7693C113.764 44.7018 112.13 44.1337 110.761 43.1369C109.391 42.1401 108.347 40.7593 107.761 39.1692C106.974 37.0374 107.065 34.6812 108.014 32.6187C108.962 30.5561 110.69 28.9562 112.817 28.1708Z" fill="white"/>
</g>
<g style="mix-blend-mode:screen" opacity="0.3">
<path d="M100.117 50.0814C103.109 46.4236 102.571 41.0256 98.9148 38.0246C95.2585 35.0236 89.8688 35.5561 86.8765 39.2139C83.8842 42.8717 84.4225 48.2697 88.0787 51.2707C91.735 54.2717 97.1247 53.7392 100.117 50.0814Z" fill="white"/>
</g>
<g style="mix-blend-mode:screen" opacity="0.3">
<path d="M171.696 50.3714C173.283 49.786 175.008 49.6852 176.653 50.0818C178.299 50.4784 179.79 51.3546 180.94 52.5995C182.089 53.8445 182.844 55.4023 183.11 57.0759C183.375 58.7496 183.14 60.464 182.432 62.0022C181.725 63.5405 180.577 64.8336 179.135 65.718C177.693 66.6024 176.021 67.0383 174.33 66.9707C172.639 66.9031 171.006 66.335 169.637 65.3382C168.267 64.3414 167.223 62.9607 166.637 61.3706C165.85 59.2385 165.942 56.8819 166.89 54.8191C167.839 52.7564 169.567 51.1565 171.696 50.3714Z" fill="white"/>
</g>
<g style="mix-blend-mode:screen" opacity="0.3">
<path d="M164.547 30.8548C166.134 30.2694 167.859 30.1686 169.504 30.5652C171.15 30.9618 172.642 31.838 173.791 33.0829C174.94 34.3279 175.695 35.8857 175.961 37.5593C176.226 39.233 175.991 40.9474 175.283 42.4856C174.576 44.0239 173.428 45.317 171.986 46.2014C170.544 47.0857 168.872 47.5217 167.181 47.4541C165.491 47.3865 163.857 46.8183 162.488 45.8215C161.118 44.8247 160.075 43.4441 159.488 41.854C158.701 39.7219 158.793 37.3652 159.741 35.3025C160.69 33.2397 162.419 31.6399 164.547 30.8548Z" fill="white"/>
</g>
<g style="mix-blend-mode:screen" opacity="0.3">
<path d="M157.435 11.7121C159.022 11.1267 160.747 11.0259 162.393 11.4225C164.038 11.8191 165.53 12.6953 166.679 13.9402C167.828 15.1852 168.584 16.743 168.849 18.4166C169.115 20.0903 168.879 21.8047 168.172 23.3429C167.464 24.8812 166.317 26.1743 164.875 27.0587C163.432 27.943 161.76 28.379 160.07 28.3114C158.379 28.2438 156.746 27.6757 155.376 26.6789C154.007 25.6821 152.963 24.3014 152.376 22.7113C151.59 20.5792 151.681 18.2225 152.63 16.1598C153.578 14.097 155.307 12.4972 157.435 11.7121Z" fill="white"/>
</g>
<path d="M128.589 80.4718L128.603 78.5509C128.508 74.543 130.202 70.3161 134.249 66.2184C137.888 62.5844 139.968 59.9145 140.254 56.5903C140.578 52.8381 138.45 50.1359 133.837 49.6657C131.196 49.4272 128.544 50.0001 126.235 51.3082L124.878 46.5204C127.467 44.9678 131.727 44.1469 135.612 44.4951C144.047 45.2211 147.407 50.7704 146.933 56.3587C146.501 61.3596 143.404 64.7268 139.523 68.611C135.962 72.1552 134.513 75.2953 134.406 79.0606L134.315 80.9824L128.589 80.4718ZM126.082 90.6301C126.317 87.9099 128.314 86.1539 130.881 86.3727C133.447 86.5916 135.045 88.66 134.809 91.3802C134.583 93.9534 132.728 95.7949 130.016 95.5612C127.444 95.3415 125.859 93.2216 126.082 90.6301Z" fill="#CFD4D7"/>
<path d="M161.505 257.595C152.663 245.585 149.34 229.681 155.883 218.371C170.299 193.427 207.951 200.374 223.987 171.107C239.28 143.195 213.441 122.405 200.055 118.404C185.28 113.974 181.311 128.436 193.234 134.533C213.876 145.09 240.111 132.81 247.436 103.233C252.897 81.1174 239.099 49.3526 190.982 50.512" stroke="#EDB98E" stroke-miterlimit="10" stroke-dasharray="4 4"/>
</svg>
