<svg width="25" height="26" viewBox="0 0 25 26" fill="none" xmlns="http://www.w3.org/2000/svg">
<path d="M3.17622 18.6811L3.17622 18.6804L3.17622 1.4616C3.17622 1.46158 3.17622 1.46156 3.17622 1.46154C3.1762 1.36811 3.19459 1.27558 3.23034 1.18926C3.26609 1.10291 3.31851 1.02445 3.38459 0.958369C3.45067 0.892286 3.52913 0.839871 3.61548 0.804118C3.7018 0.768373 3.79432 0.749984 3.88776 0.75C3.88778 0.75 3.8878 0.75 3.88782 0.75M3.17622 18.6811L3.88776 1L3.88782 0.75M3.17622 18.6811C3.17897 19.6758 2.98441 20.6611 2.60381 21.5801C2.22321 22.4991 1.66412 23.3334 0.958898 24.0349L0.95844 24.0354C0.858921 24.1349 0.791143 24.2616 0.763679 24.3997C0.736216 24.5377 0.750302 24.6807 0.804155 24.8108C0.858008 24.9408 0.949209 25.0519 1.06622 25.1301C1.18324 25.2083 1.32081 25.25 1.46154 25.25H12.8988C13.0875 25.25 13.2685 25.175 13.4019 25.0416C13.5354 24.9082 13.6103 24.7272 13.6103 24.5385C13.6103 24.3498 13.5354 24.1688 13.4019 24.0353C13.2685 23.9019 13.0875 23.8269 12.8988 23.8269H2.98491C4.03841 22.3222 4.60463 20.5251 4.5993 18.68V2.17308H20.1605V10.7599C20.1605 10.9486 20.2355 11.1296 20.3689 11.263C20.5024 11.3965 20.6833 11.4715 20.8721 11.4715C21.0608 11.4715 21.2418 11.3965 21.3752 11.2631C21.5086 11.1296 21.5836 10.9486 21.5836 10.7599V1.4616C21.5836 1.46158 21.5836 1.46156 21.5836 1.46154C21.5836 1.36811 21.5652 1.27558 21.5295 1.18925C21.4937 1.10291 21.4413 1.02445 21.3752 0.958367C21.3091 0.892284 21.2307 0.839869 21.1443 0.804118C21.058 0.768373 20.9655 0.749984 20.8721 0.75L3.17622 18.6811ZM3.88782 0.75H20.872H3.88782Z" fill="#14008D" stroke="#14008D" stroke-width="0.5"/>
<path d="M17.5589 6H7.44106C7.32408 6 7.2119 6.10536 7.12918 6.29289C7.04647 6.48043 7 6.73478 7 7C7 7.26522 7.04647 7.51957 7.12918 7.70711C7.2119 7.89464 7.32408 8 7.44106 8H17.5589C17.6759 8 17.7881 7.89464 17.8708 7.70711C17.9535 7.51957 18 7.26522 18 7C18 6.73478 17.9535 6.48043 17.8708 6.29289C17.7881 6.10536 17.6759 6 17.5589 6Z" fill="#14008D"/>
<path d="M18 11C18 10.8687 17.9886 10.7386 17.9665 10.6173C17.9443 10.4959 17.9118 10.3857 17.8709 10.2928C17.8299 10.2 17.7813 10.1263 17.7277 10.076C17.6742 10.0258 17.6169 9.99997 17.5589 10H7.44106C7.32408 10 7.2119 10.1054 7.12918 10.2929C7.04647 10.4804 7 10.7348 7 11C7 11.2652 7.04647 11.5196 7.12918 11.7071C7.2119 11.8946 7.32408 12 7.44106 12H17.5589C17.6169 12 17.6742 11.9742 17.7277 11.924C17.7813 11.8737 17.8299 11.8 17.8709 11.7072C17.9118 11.6143 17.9443 11.5041 17.9665 11.3827C17.9886 11.2614 18 11.1313 18 11Z" fill="#14008D"/>
<path d="M14 15C14 14.8687 13.9879 14.7386 13.9644 14.6173C13.9409 14.4959 13.9065 14.3857 13.8631 14.2928C13.8196 14.2 13.7681 14.1263 13.7113 14.076C13.6546 14.0258 13.5938 14 13.5324 14H7.46763C7.3436 14 7.22466 14.1054 7.13696 14.2929C7.04927 14.4804 7 14.7348 7 15C7 15.2652 7.04927 15.5196 7.13696 15.7071C7.22466 15.8946 7.3436 16 7.46763 16H13.5324C13.5938 16 13.6546 15.9742 13.7113 15.924C13.7681 15.8737 13.8196 15.8 13.8631 15.7072C13.9065 15.6143 13.9409 15.5041 13.9644 15.3827C13.9879 15.2614 14 15.1313 14 15Z" fill="#14008D"/>
<path d="M19.293 16.6421C19.2426 16.6421 19.1926 16.652 19.1459 16.6713C19.0993 16.6906 19.0569 16.7189 19.0212 16.7546C18.9855 16.7903 18.9572 16.8327 18.9379 16.8793C18.9186 16.926 18.9087 16.976 18.9087 17.0264V19.9698C18.9093 20.0718 18.9498 20.1695 19.0216 20.2419L20.4145 21.6348C20.4868 21.7061 20.5843 21.7459 20.6858 21.7456C20.7872 21.7453 20.8845 21.7048 20.9563 21.6331C21.028 21.5613 21.0685 21.4641 21.0688 21.3626C21.0692 21.2611 21.0293 21.1636 20.958 21.0914L19.6774 19.8107V17.0264C19.6774 16.976 19.6675 16.926 19.6482 16.8793C19.6288 16.8327 19.6005 16.7903 19.5648 16.7546C19.5291 16.7189 19.4868 16.6906 19.4401 16.6713C19.3935 16.652 19.3435 16.6421 19.293 16.6421Z" fill="#14008D"/>
<circle cx="19.5" cy="19.5" r="4.75" stroke="#14008D" stroke-width="1.5"/>
</svg>
